<svg width="50" height="50" viewBox="0 0 50 50" fill="none" xmlns="http://www.w3.org/2000/svg">
<path d="M9.24472 38.0746L9.55235 38.435L9.92873 38.1472C12.0109 36.5549 14.3398 35.298 16.9182 34.3771C19.4875 33.4595 22.1805 33 25 33C27.8195 33 30.5125 33.4595 33.0818 34.3771C35.6602 35.298 37.9891 36.5549 40.0713 38.1472L40.4477 38.435L40.7553 38.0746C42.2525 36.3208 43.4171 34.3325 44.2494 32.1131C45.0843 29.8868 45.5 27.5145 45.5 25C45.5 19.3266 43.5 14.4804 39.5098 10.4902C35.5196 6.49998 30.6734 4.5 25 4.5C19.3266 4.5 14.4804 6.49998 10.4902 10.4902C6.49998 14.4804 4.5 19.3266 4.5 25C4.5 27.5145 4.91575 29.8868 5.75059 32.1131C6.58287 34.3325 7.74751 36.3208 9.24472 38.0746ZM36.9234 41.6512L37.4629 41.25L36.9234 40.8488C35.2546 39.6079 33.4149 38.6562 31.4066 37.9939C29.3943 37.3303 27.2578 37 25 37C22.7422 37 20.6057 37.3303 18.5934 37.9939C16.5851 38.6562 14.7454 39.6079 13.0766 40.8488L12.5371 41.25L13.0766 41.6512C14.7454 42.8921 16.5851 43.8438 18.5934 44.5061C20.6057 45.1697 22.7422 45.5 25 45.5C27.2578 45.5 29.3943 45.1697 31.4066 44.5061C33.4149 43.8438 35.2546 42.8921 36.9234 41.6512ZM25 27C22.6698 27 20.7254 26.2058 19.1348 24.6152C17.5442 23.0246 16.75 21.0802 16.75 18.75C16.75 16.4198 17.5442 14.4754 19.1348 12.8848C20.7254 11.2942 22.6698 10.5 25 10.5C27.3302 10.5 29.2746 11.2942 30.8652 12.8848C32.4558 14.4754 33.25 16.4198 33.25 18.75C33.25 21.0802 32.4558 23.0246 30.8652 24.6152C29.2746 26.2058 27.3302 27 25 27ZM25 49.5C21.6067 49.5 18.4245 48.8565 15.4481 47.5722C12.462 46.2837 9.86954 44.5374 7.66605 42.3339C5.46257 40.1305 3.71634 37.538 2.42783 34.5519C1.14351 31.5755 0.5 28.3933 0.5 25C0.5 21.6067 1.14351 18.4245 2.42783 15.4481C3.71634 12.462 5.46257 9.86954 7.66605 7.66605C9.86954 5.46257 12.462 3.71634 15.4481 2.42783C18.4245 1.14351 21.6067 0.5 25 0.5C28.3933 0.5 31.5755 1.14351 34.5519 2.42783C37.538 3.71634 40.1305 5.46257 42.3339 7.66605C44.5374 9.86954 46.2837 12.462 47.5722 15.4481C48.8565 18.4245 49.5 21.6067 49.5 25C49.5 28.3933 48.8565 31.5755 47.5722 34.5519C46.2837 37.538 44.5374 40.1305 42.3339 42.3339C40.1305 44.5374 37.538 46.2837 34.5519 47.5722C31.5755 48.8565 28.3933 49.5 25 49.5ZM25 23C26.204 23 27.2308 22.6013 28.0411 21.7911C28.8513 20.9808 29.25 19.954 29.25 18.75C29.25 17.546 28.8513 16.5192 28.0411 15.7089C27.2308 14.8987 26.204 14.5 25 14.5C23.796 14.5 22.7692 14.8987 21.9589 15.7089C21.1487 16.5192 20.75 17.546 20.75 18.75C20.75 19.954 21.1487 20.9808 21.9589 21.7911C22.7692 22.6013 23.796 23 25 23Z" fill="#83536A" stroke="#83536A"/>
</svg>
