<svg width="30" height="30" viewBox="0 0 40 40" fill="none" xmlns="http://www.w3.org/2000/svg">
<path d="M35.7143 0H4.28571C3.14907 0 2.05898 0.442865 1.25526 1.23117C0.451529 2.01947 0 3.08864 0 4.20348L0 35.029C0 36.1438 0.451529 37.213 1.25526 38.0013C2.05898 38.7896 3.14907 39.2324 4.28571 39.2324H16.5402V25.8943H10.9152V19.6162H16.5402V14.8313C16.5402 9.38864 19.8438 6.38228 24.9036 6.38228C27.3268 6.38228 29.8607 6.80613 29.8607 6.80613V12.148H27.0688C24.3179 12.148 23.4598 13.8224 23.4598 15.5397V19.6162H29.6009L28.6188 25.8943H23.4598V39.2324H35.7143C36.8509 39.2324 37.941 38.7896 38.7447 38.0013C39.5485 37.213 40 36.1438 40 35.029V4.20348C40 3.08864 39.5485 2.01947 38.7447 1.23117C37.941 0.442865 36.8509 0 35.7143 0Z" fill="#83536A"/>
</svg>
