<svg width="40" height="40" viewBox="0 0 40 40" fill="none" xmlns="http://www.w3.org/2000/svg">
<path d="M20.0089 9.55752C14.3323 9.55752 9.75343 14.0485 9.75343 19.6162C9.75343 25.184 14.3323 29.6749 20.0089 29.6749C25.6856 29.6749 30.2644 25.184 30.2644 19.6162C30.2644 14.0485 25.6856 9.55752 20.0089 9.55752ZM20.0089 26.1557C16.3405 26.1557 13.3415 23.223 13.3415 19.6162C13.3415 16.0094 16.3316 13.0768 20.0089 13.0768C23.6863 13.0768 26.6763 16.0094 26.6763 19.6162C26.6763 23.223 23.6773 26.1557 20.0089 26.1557ZM33.076 9.14607C33.076 10.4505 32.0049 11.4922 30.6839 11.4922C29.354 11.4922 28.2919 10.4417 28.2919 9.14607C28.2919 7.85043 29.3629 6.79991 30.6839 6.79991C32.0049 6.79991 33.076 7.85043 33.076 9.14607ZM39.8684 11.5272C39.7166 8.38444 38.9847 5.60057 36.6373 3.30694C34.2988 1.01331 31.4605 0.295458 28.2562 0.13788C24.9537 -0.0459601 15.0552 -0.0459601 11.7528 0.13788C8.5574 0.286704 5.71907 1.00456 3.37164 3.29819C1.02421 5.59182 0.301238 8.37569 0.140578 11.5185C-0.0468593 14.7576 -0.0468593 24.4661 0.140578 27.7052C0.292313 30.848 1.02421 33.6319 3.37164 35.9255C5.71907 38.2191 8.54848 38.937 11.7528 39.0946C15.0552 39.2784 24.9537 39.2784 28.2562 39.0946C31.4605 38.9457 34.2988 38.2279 36.6373 35.9255C38.9758 33.6319 39.7077 30.848 39.8684 27.7052C40.0558 24.4661 40.0558 14.7663 39.8684 11.5272ZM35.6019 31.1807C34.9057 32.8965 33.558 34.2184 31.7996 34.91C29.1666 35.9343 22.9187 35.6979 20.0089 35.6979C17.0992 35.6979 10.8424 35.9255 8.21823 34.91C6.46882 34.2272 5.12105 32.9053 4.41593 31.1807C3.37164 28.5981 3.61263 22.4701 3.61263 19.6162C3.61263 16.7623 3.38056 10.6255 4.41593 8.05178C5.11213 6.33593 6.45989 5.01403 8.21823 4.32244C10.8513 3.29819 17.0992 3.53455 20.0089 3.53455C22.9187 3.53455 29.1755 3.30694 31.7996 4.32244C33.549 5.00528 34.8968 6.32718 35.6019 8.05178C36.6462 10.6343 36.4052 16.7623 36.4052 19.6162C36.4052 22.4701 36.6462 28.6069 35.6019 31.1807Z" fill="#83536A"/>
</svg>
