<svg width="15" height="27" viewBox="0 0 31 55" fill="none" xmlns="http://www.w3.org/2000/svg">
<path d="M6.33325 54.1238V29.3621C4.63325 28.7307 3.20825 27.4678 2.05825 25.5735C0.908252 23.6791 0.333252 21.4691 0.333252 18.9433V0H4.33325V18.9433H6.33325V0H10.3333V18.9433H12.3333V0H16.3333V18.9433C16.3333 21.4691 15.7583 23.6791 14.6083 25.5735C13.4583 27.4678 12.0333 28.7307 10.3333 29.3621V54.1238H6.33325ZM26.3333 54.1238V32.4743H20.3333V13.5309C20.3333 9.78738 21.3083 6.59633 23.2583 3.9578C25.2083 1.31927 27.5666 0 30.3333 0V54.1238H26.3333Z" fill="#7E1A4B"/>
</svg>
