<svg width="40" height="41" viewBox="0 0 40 41" fill="none" xmlns="http://www.w3.org/2000/svg">
<path d="M20 41L17.1 38.0954C13.7333 34.7066 10.95 31.7834 8.75 29.3256C6.55 26.8678 4.8 24.6614 3.5 22.7064C2.2 20.7514 1.29167 18.9546 0.775 17.3161C0.258333 15.6776 0 14.0018 0 12.2888C0 8.78837 1.05 5.86512 3.15 3.51907C5.25 1.17302 7.86667 0 11 0C12.7333 0 14.3833 0.409628 15.95 1.22888C17.5167 2.04814 18.8667 3.20254 20 4.6921C21.1333 3.20254 22.4833 2.04814 24.05 1.22888C25.6167 0.409628 27.2667 0 29 0C32.1333 0 34.75 1.17302 36.85 3.51907C38.95 5.86512 40 8.78837 40 12.2888C40 14.0018 39.7417 15.6776 39.225 17.3161C38.7083 18.9546 37.8 20.7514 36.5 22.7064C35.2 24.6614 33.45 26.8678 31.25 29.3256C29.05 31.7834 26.2667 34.7066 22.9 38.0954L20 41ZM20 34.9673C23.2 31.7648 25.8333 29.0184 27.9 26.7282C29.9667 24.438 31.6 22.4457 32.8 20.7514C34 19.057 34.8333 17.5488 35.3 16.2268C35.7667 14.9049 36 13.5922 36 12.2888C36 10.0545 35.3333 8.19255 34 6.703C32.6667 5.21344 31 4.46866 29 4.46866C27.4333 4.46866 25.9833 4.96208 24.65 5.94891C23.3167 6.93574 22.4 8.19255 21.9 9.71935H18.1C17.6 8.19255 16.6833 6.93574 15.35 5.94891C14.0167 4.96208 12.5667 4.46866 11 4.46866C9 4.46866 7.33333 5.21344 6 6.703C4.66667 8.19255 4 10.0545 4 12.2888C4 13.5922 4.23333 14.9049 4.7 16.2268C5.16667 17.5488 6 19.057 7.2 20.7514C8.4 22.4457 10.0333 24.438 12.1 26.7282C14.1667 29.0184 16.8 31.7648 20 34.9673Z" fill="#7E1A4B"/>
</svg>
