<svg width="27" height="27" viewBox="0 0 54 55" fill="none" xmlns="http://www.w3.org/2000/svg">
<path d="M0 54.1238V46.9073H53.3333V54.1238H0ZM2.66667 43.299V39.6908C2.66667 31.9932 4.41111 25.1976 7.9 19.3041C11.3889 13.4107 15.8667 9.68214 21.3333 8.11856V7.2165C21.3333 5.23196 21.8556 3.53308 22.9 2.11985C23.9444 0.706616 25.2 0 26.6667 0C28.1333 0 29.3889 0.706616 30.4333 2.11985C31.4778 3.53308 32 5.23196 32 7.2165V8.11856C37.5111 9.68214 42 13.4107 45.4667 19.3041C48.9333 25.1976 50.6667 31.9932 50.6667 39.6908V43.299H2.66667ZM8.13333 36.0825H45.2C44.5778 29.8282 42.5111 24.6564 39 20.567C35.4889 16.4777 31.3778 14.433 26.6667 14.433C21.9556 14.433 17.8556 16.4777 14.3667 20.567C10.8778 24.6564 8.8 29.8282 8.13333 36.0825Z" fill="#7E1A4B"/>
</svg>
