<svg width="25" height="25" viewBox="0 0 50 49" fill="none" xmlns="http://www.w3.org/2000/svg">
<path d="M24.9879 35.6401L24.9973 35.6307L27.4971 36.9657L35.5644 41.274L34.0021 32.0326L33.5476 29.315L35.5076 27.374L42.1451 20.8122L33.0457 19.4676L30.2714 19.0605L29.0499 16.5418L24.9973 8.22829L24.9879 8.25669V35.6401ZM41.5675 44.9478C41.7569 46.0841 41.2835 47.2393 40.3461 47.9115C39.4087 48.5838 38.1683 48.669 37.1457 48.1293L24.9973 41.6433L12.849 48.1293C11.8264 48.669 10.586 48.5838 9.6486 47.9115C8.7112 47.2393 8.23776 46.0841 8.42714 44.9478L10.7659 31.152L0.899534 21.3898C0.0852269 20.5849 -0.208302 19.3824 0.151508 18.2935C0.511318 17.2046 1.44872 16.4092 2.58496 16.2388L16.182 14.2314L22.2798 1.70436C22.7911 0.662808 23.8422 0 25.0068 0C26.1715 0 27.2225 0.662808 27.7338 1.70436L33.8221 14.2314L47.4192 16.2388C48.5554 16.4092 49.5023 17.2046 49.8526 18.2935C50.203 19.3824 49.9189 20.5849 49.1046 21.3898L39.2382 31.152L41.5675 44.9478Z" fill="#2A0919"/>
</svg>
