<svg width="50" height="49" viewBox="0 0 50 49" fill="none" xmlns="http://www.w3.org/2000/svg">
<path d="M27.7202 1.70436C27.2183 0.662808 26.1578 0 24.9932 0C23.8286 0 22.7775 0.662808 22.2662 1.70436L16.1779 14.2314L2.58083 16.2388C1.44458 16.4092 0.497716 17.2046 0.147375 18.2935C-0.202966 19.3824 0.0810938 20.5849 0.895401 21.3898L10.7618 31.152L8.43247 44.9478C8.2431 46.0841 8.71653 47.2393 9.65393 47.9115C10.5913 48.5838 11.8317 48.669 12.8543 48.1293L25.0027 41.6433L37.151 48.1293C38.1736 48.669 39.414 48.5933 40.3514 47.9115C41.2888 47.2298 41.7622 46.0841 41.5729 44.9478L39.2341 31.152L49.1005 21.3898C49.9148 20.5849 50.2083 19.3824 49.8485 18.2935C49.4887 17.2046 48.5513 16.4092 47.415 16.2388L33.8085 14.2314L27.7202 1.70436Z" fill="#2A0919"/>
</svg>
