<svg width="25" height="25" viewBox="0 0 50 49" fill="none" xmlns="http://www.w3.org/2000/svg">
<path d="M25.0008 0C25.8724 0 26.6682 0.492642 27.0472 1.27897L33.5463 14.6656L48.0603 16.8067C48.9129 16.9298 49.6235 17.5267 49.8887 18.3509C50.154 19.1752 49.9361 20.0657 49.3298 20.672L38.8043 31.1122L41.2864 45.8536C41.4285 46.7063 41.078 47.5684 40.3769 48.08C39.6759 48.5916 38.738 48.6484 37.98 48.241L25.0008 41.3062L12.0311 48.2316C11.2637 48.6389 10.3352 48.5821 9.63417 48.0705C8.9331 47.5589 8.5731 46.6968 8.7152 45.8441L11.1974 31.1028L0.671873 20.672C0.0560699 20.0657 -0.152356 19.1657 0.112913 18.3509C0.378182 17.5362 1.08872 16.9393 1.94137 16.8067L16.4554 14.6656L22.9545 1.27897C23.3429 0.492642 24.1292 0 25.0008 0ZM25.0008 7.48437L20.027 17.7351C19.6954 18.4078 19.0607 18.8815 18.3123 18.9951L7.10464 20.6436L15.2427 28.7059C15.7638 29.2269 16.0101 29.9659 15.8869 30.6954L13.9637 42.0356L23.9303 36.7113C24.6029 36.3513 25.4082 36.3513 26.0714 36.7113L36.0379 42.0356L34.1242 30.7049C34.001 29.9754 34.2379 29.2364 34.7684 28.7154L42.9065 20.6531L31.6989 18.9951C30.9599 18.8815 30.3157 18.4172 29.9841 17.7351L25.0008 7.48437Z" fill="#2A0919"/>
</svg>
