<svg width="33" height="40" viewBox="0 0 33 40" fill="none" xmlns="http://www.w3.org/2000/svg">
<path d="M27.5 40C25.9722 40 24.6736 39.4167 23.6042 38.25C22.5347 37.0833 22 35.6667 22 34C22 33.7667 22.0153 33.525 22.0458 33.275C22.0764 33.025 22.1222 32.8 22.1833 32.6L9.25833 24.4C8.73889 24.9 8.15833 25.2917 7.51667 25.575C6.875 25.8583 6.20278 26 5.5 26C3.97222 26 2.67361 25.4167 1.60417 24.25C0.534722 23.0833 0 21.6667 0 20C0 18.3333 0.534722 16.9167 1.60417 15.75C2.67361 14.5833 3.97222 14 5.5 14C6.20278 14 6.875 14.1417 7.51667 14.425C8.15833 14.7083 8.73889 15.1 9.25833 15.6L22.1833 7.4C22.1222 7.2 22.0764 6.975 22.0458 6.725C22.0153 6.475 22 6.23333 22 6C22 4.33333 22.5347 2.91667 23.6042 1.75C24.6736 0.583333 25.9722 0 27.5 0C29.0278 0 30.3264 0.583333 31.3958 1.75C32.4653 2.91667 33 4.33333 33 6C33 7.66667 32.4653 9.08333 31.3958 10.25C30.3264 11.4167 29.0278 12 27.5 12C26.7972 12 26.125 11.8583 25.4833 11.575C24.8417 11.2917 24.2611 10.9 23.7417 10.4L10.8167 18.6C10.8778 18.8 10.9236 19.025 10.9542 19.275C10.9847 19.525 11 19.7667 11 20C11 20.2333 10.9847 20.475 10.9542 20.725C10.9236 20.975 10.8778 21.2 10.8167 21.4L23.7417 29.6C24.2611 29.1 24.8417 28.7083 25.4833 28.425C26.125 28.1417 26.7972 28 27.5 28C29.0278 28 30.3264 28.5833 31.3958 29.75C32.4653 30.9167 33 32.3333 33 34C33 35.6667 32.4653 37.0833 31.3958 38.25C30.3264 39.4167 29.0278 40 27.5 40ZM27.5 8C28.0194 8 28.4549 7.80833 28.8063 7.425C29.1576 7.04167 29.3333 6.56667 29.3333 6C29.3333 5.43333 29.1576 4.95833 28.8063 4.575C28.4549 4.19167 28.0194 4 27.5 4C26.9806 4 26.5451 4.19167 26.1938 4.575C25.8424 4.95833 25.6667 5.43333 25.6667 6C25.6667 6.56667 25.8424 7.04167 26.1938 7.425C26.5451 7.80833 26.9806 8 27.5 8ZM5.5 22C6.01944 22 6.45486 21.8083 6.80625 21.425C7.15764 21.0417 7.33333 20.5667 7.33333 20C7.33333 19.4333 7.15764 18.9583 6.80625 18.575C6.45486 18.1917 6.01944 18 5.5 18C4.98056 18 4.54514 18.1917 4.19375 18.575C3.84236 18.9583 3.66667 19.4333 3.66667 20C3.66667 20.5667 3.84236 21.0417 4.19375 21.425C4.54514 21.8083 4.98056 22 5.5 22ZM27.5 36C28.0194 36 28.4549 35.8083 28.8063 35.425C29.1576 35.0417 29.3333 34.5667 29.3333 34C29.3333 33.4333 29.1576 32.9583 28.8063 32.575C28.4549 32.1917 28.0194 32 27.5 32C26.9806 32 26.5451 32.1917 26.1938 32.575C25.8424 32.9583 25.6667 33.4333 25.6667 34C25.6667 34.5667 25.8424 35.0417 26.1938 35.425C26.5451 35.8083 26.9806 36 27.5 36Z" fill="#7E1A4B"/>
</svg>
