<svg width="27" height="30" viewBox="0 0 35 40" fill="none" xmlns="http://www.w3.org/2000/svg">
<path d="M34.9987 16.0886C31.5584 16.0967 28.2024 15.0444 25.4049 13.0803V26.7783C25.4039 29.3154 24.6133 31.7916 23.1387 33.8761C21.6642 35.9605 19.5759 37.5537 17.1532 38.4426C14.7306 39.3316 12.0889 39.4739 9.58155 38.8506C7.07418 38.2272 4.82058 36.868 3.1221 34.9545C1.42362 33.041 0.361219 30.6646 0.0769509 28.1429C-0.207317 25.6213 0.300099 23.0746 1.53135 20.8434C2.7626 18.6122 4.659 16.8029 6.96697 15.6574C9.27494 14.5119 11.8845 14.0847 14.4466 14.4331V21.3227C13.2742 20.961 12.0152 20.9719 10.8494 21.3538C9.68367 21.7358 8.67077 22.4693 7.95537 23.4495C7.23998 24.4298 6.85867 25.6067 6.86591 26.8121C6.87315 28.0176 7.26857 29.19 7.99568 30.1619C8.7228 31.1339 9.74444 31.8556 10.9147 32.224C12.085 32.5925 13.344 32.5888 14.512 32.2136C15.6801 31.8384 16.6973 31.1107 17.4186 30.1346C18.1398 29.1585 18.5282 27.9838 18.5281 26.7783V0H25.4049C25.4001 0.569582 25.4488 1.13839 25.5502 1.69923C25.7892 2.95121 26.286 4.14222 27.0104 5.19941C27.7348 6.2566 28.6714 7.15774 29.763 7.84771C31.3161 8.8549 33.1369 9.39173 34.9987 9.39135V16.0886Z" fill="#83536A"/>
</svg>
