<svg width="23" height="27" viewBox="0 0 46 54" fill="none" xmlns="http://www.w3.org/2000/svg">
<path d="M15.3333 5.14286V0H30.6667V5.14286H15.3333ZM20.4444 33.4286H25.5556V18H20.4444V33.4286ZM23 54C19.8481 54 16.8773 53.3893 14.0875 52.1679C11.2977 50.9464 8.85926 49.2857 6.77222 47.1857C4.68519 45.0857 3.03472 42.6321 1.82083 39.825C0.606944 37.0179 0 34.0286 0 30.8571C0 27.6857 0.606944 24.6964 1.82083 21.8893C3.03472 19.0821 4.68519 16.6286 6.77222 14.5286C8.85926 12.4286 11.2977 10.7679 14.0875 9.54643C16.8773 8.325 19.8481 7.71429 23 7.71429C25.6407 7.71429 28.175 8.14286 30.6028 9C33.0306 9.85714 35.3093 11.1 37.4389 12.7286L41.0167 9.12857L44.5944 12.7286L41.0167 16.3286C42.6352 18.4714 43.8704 20.7643 44.7222 23.2071C45.5741 25.65 46 28.2 46 30.8571C46 34.0286 45.3931 37.0179 44.1792 39.825C42.9653 42.6321 41.3148 45.0857 39.2278 47.1857C37.1407 49.2857 34.7023 50.9464 31.9125 52.1679C29.1227 53.3893 26.1519 54 23 54ZM23 48.8571C27.9407 48.8571 32.1574 47.1 35.65 43.5857C39.1426 40.0714 40.8889 35.8286 40.8889 30.8571C40.8889 25.8857 39.1426 21.6429 35.65 18.1286C32.1574 14.6143 27.9407 12.8571 23 12.8571C18.0593 12.8571 13.8426 14.6143 10.35 18.1286C6.85741 21.6429 5.11111 25.8857 5.11111 30.8571C5.11111 35.8286 6.85741 40.0714 10.35 43.5857C13.8426 47.1 18.0593 48.8571 23 48.8571Z" fill="#7E1A4B"/>
</svg>
